<svg xmlns="http://www.w3.org/2000/svg" width="512" height="512" viewBox="0 0 24 24"><path fill="#000000" d="m5.85 12l-.3-1.5q-.3-.125-.562-.263T4.45 9.9L3 10.35l-1-1.7l1.15-1Q3.1 7.325 3.1 7t.05-.65L2 5.35l1-1.7l1.45.45q.275-.2.537-.338T5.55 3.5l.3-1.5h2l.3 1.5q.3.125.563.263t.537.337l1.45-.45l1 1.7l-1.15 1q.05.325.05.65t-.05.65l1.15 1l-1 1.7l-1.45-.45q-.275.2-.537.338t-.563.262l-.3 1.5h-2Zm1-3q.825 0 1.413-.588T8.85 7q0-.825-.588-1.413T6.85 5q-.825 0-1.412.588T4.85 7q0 .825.588 1.413T6.85 9Zm7.95 14l-.45-2.1q-.425-.15-.787-.363t-.713-.487l-2 .65l-1.4-2.4l1.6-1.4Q11 16.45 11 16t.05-.9l-1.6-1.4l1.4-2.4l2 .65q.35-.275.713-.488t.787-.362L14.8 9h2.8l.45 2.1q.425.15.788.363t.712.487l2-.65l1.4 2.4l-1.6 1.4q.05.45.05.9t-.05.9l1.6 1.4l-1.4 2.4l-2-.65q-.35.275-.713.487t-.787.363L17.6 23h-2.8Zm1.4-4q1.25 0 2.125-.875T19.2 16q0-1.25-.875-2.125T16.2 13q-1.25 0-2.125.875T13.2 16q0 1.25.875 2.125T16.2 19Z"/></svg>